<svg width="63" height="63" fill="none" xmlns="http://www.w3.org/2000/svg"><path d="M55.125 43.313c0 .997-.551 1.863-1.391 2.31L32.996 57.278c-.42.315-.945.472-1.496.472s-1.076-.157-1.496-.472L9.266 45.623a2.598 2.598 0 01-1.391-2.31V19.686c0-.997.551-1.863 1.391-2.31L30.004 5.724c.42-.316.945-.473 1.496-.473s1.076.157 1.496.473l20.738 11.655a2.602 2.602 0 011.391 2.31v23.625zm-42-19.688v15.75h3.281v-5.25h1.969a5.25 5.25 0 100-10.5h-5.25zm3.281 7.875v-5.25h1.313a2.625 2.625 0 010 5.25h-1.313zm9.188-7.875v15.75h3.281v-5.25h1.969l1.732 5.25h3.465l-2.073-6.274a5.244 5.244 0 002.126-4.226 5.25 5.25 0 00-5.25-5.25h-5.25zm3.281 7.875v-5.25h1.313a2.625 2.625 0 010 5.25h-1.313zm15.75-7.875c-3.623 0-6.563 3.517-6.563 7.875 0 4.358 2.94 7.875 6.563 7.875 3.623 0 6.563-3.517 6.563-7.875 0-4.358-2.94-7.875-6.563-7.875zm0 3.281c1.995 0 3.623 2.048 3.623 4.594 0 2.546-1.628 4.594-3.623 4.594-1.995 0-3.596-2.048-3.596-4.594 0-2.546 1.601-4.594 3.596-4.594z" fill="#2C3878"/></svg>